<?xml version="1.0" encoding="utf-8"?>
<!-- Svg Vector Icons : http://www.onlinewebfonts.com/icon -->
<!DOCTYPE svg PUBLIC "-//W3C//DTD SVG 1.1//EN" "http://www.w3.org/Graphics/SVG/1.1/DTD/svg11.dtd">
<svg version="1.1" xmlns="http://www.w3.org/2000/svg" xmlns:xlink="http://www.w3.org/1999/xlink" x="0px" y="0px" viewBox="0 0 1000 1000" enable-background="new 0 0 1000 1000" xml:space="preserve">
<metadata> Svg Vector Icons : http://www.onlinewebfonts.com/icon </metadata>
<g><g transform="translate(0.000000,511.000000) scale(0.100000,-0.100000)"><path d="M5852.7,3524.8c-30.7-24.5-65.4-61.3-75.7-83.8c-12.3-20.4-278.1-1241.1-593-2709.3C4869.1-738.5,4607.4-1944.9,4603.3-1949c-2-4.1-151.3,717.7-327.2,1603.1c-177.9,885.3-335.3,1635.8-351.7,1666.4c-32.7,63.4-124.7,118.6-198.3,118.6c-26.6,0-79.8-20.4-116.6-47c-63.4-40.9-104.3-128.8-427.3-899.7l-355.8-852.7H1534.2c-1255.5,0-1294.3-2-1343.4-40.9C66.1-499.2,70.2-691.5,201-769.2c63.4-38.8,114.5-40.9,1451.8-40.9c1560.1,0,1470.2-8.2,1543.8,153.3c22.5,45,128.8,300.6,241.3,566.4c110.4,265.8,206.5,480.5,212.7,474.4c6.1-6.1,171.8-822,370.1-1811.6c404.8-2012,368-1891.4,554.1-1911.8c75.6-8.2,100.2-2,153.4,42.9c36.8,30.7,73.6,83.8,85.9,120.6c10.2,36.8,280.1,1282,597.1,2770.6c316.9,1486.5,584.8,2697,590.9,2688.8c8.2-10.2,186.1-687,398.7-1509c210.6-819.9,392.6-1509,402.8-1529.4c49-94.1,73.6-96.1,1543.8-96.1c1337.2,0,1388.3,2.1,1451.7,40.9c130.8,77.7,134.9,269.9,10.2,368c-49.1,38.9-87.9,40.9-1337.3,40.9H7187.9l-20.4,47c-10.2,24.5-231,873.1-490.7,1885.2c-259.7,1012.1-480.5,1864.8-492.8,1895.5c-32.7,81.8-90,122.7-186.1,132.9C5928.3,3567.7,5897.6,3559.5,5852.7,3524.8z"/></g></g>
</svg>