<?xml version="1.0" encoding="utf-8"?>
<!-- Generator: Adobe Illustrator 24.1.1, SVG Export Plug-In . SVG Version: 6.00 Build 0)  -->
<svg version="1.1" id="Layer_1" xmlns="http://www.w3.org/2000/svg" xmlns:xlink="http://www.w3.org/1999/xlink" x="0px" y="0px"
	 viewBox="0 0 512 512" style="enable-background:new 0 0 512 512;" xml:space="preserve">
<g id="XMLID_1_">
	<path id="XMLID_6_" d="M512,490.6c0,12.1-9.3,21.4-21.4,21.4H21.4C9.3,512,0,502.7,0,490.6V21.4C0,9.3,9.3,0,21.4,0h469.2
		C502.7,0,512,9.3,512,21.4V490.6L512,490.6z M234.6,64.2c0-5.6-4.7-10.2-10.2-10.2H64.2C58.6,54,54,58.6,54,64.2v340.7
		c0,5.6,4.7,10.2,10.2,10.2h160.1c5.6,0,10.2-4.7,10.2-10.2C234.6,404.9,234.6,64.2,234.6,64.2z M458.9,64.2
		c0-5.6-4.7-10.2-10.2-10.2h-161c-5.6,0-10.2,4.7-10.2,10.2v213.2c0,5.6,4.7,10.2,10.2,10.2h160.1c5.6,0,10.2-4.7,10.2-10.2V64.2
		H458.9z"/>
</g>
</svg>
